<mxfile host="app.diagrams.net" modified="2024-03-16T06:08:14.104Z" agent="Mozilla/5.0 (X11; Linux x86_64) AppleWebKit/537.36 (KHTML, like Gecko) Chrome/118.0.0.0 YaBrowser/23.11.0.0 Safari/537.36" version="24.0.7" etag="N803QQvQKjoum9fEbmOD" type="github">
  <diagram name="Страница — 1" id="x24QNEO97ik122ZnQ_Dy">
    <mxGraphModel>
      <root>
        <mxCell id="0" />
        <mxCell id="1" parent="0" />
      </root>
    </mxGraphModel>
  </diagram>
</mxfile>
